<svg width="360" height="474" viewBox="0 0 360 474" fill="none" xmlns="http://www.w3.org/2000/svg">
<path d="M22.5 285.5C16 203.5 220.668 111.5 300 57.5C339.388 30.6894 341.48 12.3352 335.5 0C329.436 -12.5094 315.048 -18.8287 319.5 -21.5C330.006 -27.8038 346.4 -17.2094 356.259 0C367.514 19.6455 370.254 47.9115 346 69.5C300.499 110 49.5 190.5 49.5 285.5C49.5 391.82 4.33922e-05 473.5 4.33922e-05 473.5C4.33922e-05 473.5 -4.77403 472.594 4.33922e-05 391.5C1.61427 364.08 29 367.5 22.5 285.5Z" fill="#275954"/>
</svg>
